<svg id="svg" version="1.1" xmlns="http://www.w3.org/2000/svg" xmlns:xlink="http://www.w3.org/1999/xlink" width="400" height="400" viewBox="0, 0, 400,400"><g id="svgg"><path id="path0" d="M227.299 49.882 C 226.804 49.978,226.223 50.384,226.009 50.784 C 225.641 51.471,225.480 72.657,225.833 74.000 C 225.969 74.520,227.624 74.585,238.239 74.489 L 250.487 74.377 250.196 73.089 C 250.035 72.380,249.838 67.136,249.757 61.437 C 249.629 52.461,249.520 50.975,248.943 50.337 C 248.303 49.630,230.547 49.257,227.299 49.882 M274.198 99.204 C 274.045 99.451,269.645 99.600,262.530 99.600 L 251.107 99.600 251.391 100.500 C 251.706 101.499,251.792 106.141,251.653 114.600 C 251.602 117.680,251.569 120.392,251.580 120.626 C 251.617 121.425,254.731 122.835,256.486 122.848 C 257.429 122.855,261.665 122.777,265.900 122.675 C 270.135 122.572,273.600 122.638,273.600 122.822 C 273.600 123.005,274.125 123.465,274.766 123.843 C 276.361 124.786,276.944 126.138,277.076 129.200 C 277.203 132.146,277.199 131.817,277.215 139.555 C 277.227 145.130,277.260 145.356,278.284 146.780 L 279.341 148.251 287.771 148.150 C 292.407 148.094,296.650 147.881,297.200 147.676 C 297.985 147.383,298.372 147.468,299.000 148.071 C 299.440 148.494,300.520 149.480,301.400 150.262 L 303.000 151.684 302.898 160.142 C 302.831 165.759,302.965 169.406,303.298 171.000 L 303.800 173.400 313.600 173.611 C 318.990 173.728,323.580 173.674,323.800 173.492 C 324.204 173.158,324.672 159.589,325.036 137.706 C 325.211 127.214,325.173 126.369,324.508 125.800 C 323.907 125.285,321.968 125.171,312.463 125.093 C 302.048 125.008,301.092 124.942,300.605 124.275 C 300.191 123.709,300.089 121.127,300.137 112.536 C 300.172 106.479,300.072 101.316,299.915 101.062 C 299.717 100.740,296.272 100.533,288.515 100.379 C 279.259 100.196,277.153 100.046,275.921 99.483 C 275.001 99.062,274.350 98.957,274.198 99.204 M212.433 100.307 C 205.159 100.377,201.287 100.562,200.933 100.856 C 200.512 101.205,200.400 103.638,200.400 112.395 C 200.400 123.071,200.368 123.533,199.558 124.563 L 198.716 125.633 187.504 125.581 C 178.530 125.539,176.223 125.636,175.948 126.064 C 175.759 126.359,175.649 131.370,175.702 137.200 C 175.776 145.148,175.674 148.021,175.296 148.682 C 174.895 149.383,174.771 167.528,174.696 237.082 L 174.600 324.600 186.400 324.478 C 192.890 324.411,198.351 324.206,198.535 324.023 C 198.719 323.840,198.899 318.724,198.935 312.654 L 199.000 301.618 200.108 300.509 L 201.217 299.400 212.508 299.200 L 223.800 299.000 224.000 287.761 C 224.145 279.607,224.337 276.356,224.700 275.919 C 225.270 275.234,225.478 124.354,224.910 123.477 C 224.741 123.215,224.564 118.064,224.518 112.031 C 224.454 103.636,224.313 100.961,223.917 100.631 C 223.568 100.340,219.838 100.235,212.433 100.307 M250.400 161.838 C 250.400 172.605,250.455 173.526,251.131 174.138 C 252.286 175.183,275.837 175.146,275.380 174.100 C 275.211 173.715,274.992 168.410,274.892 162.312 C 274.738 152.965,274.613 151.143,274.093 150.712 C 273.624 150.322,270.720 150.200,261.939 150.200 L 250.400 150.200 250.400 161.838 M147.000 175.236 C 146.120 175.426,141.042 175.557,135.716 175.528 C 128.132 175.487,125.892 175.592,125.384 176.013 C 124.810 176.490,124.748 177.826,124.846 187.729 C 124.986 202.071,126.071 201.153,109.541 200.681 C 98.882 200.377,100.000 198.917,100.000 213.146 C 100.000 226.264,99.968 226.400,96.934 226.400 C 95.959 226.400,94.593 226.693,93.900 227.052 C 92.789 227.626,92.255 227.644,89.419 227.204 C 87.000 226.829,85.802 226.815,84.600 227.150 C 82.711 227.676,79.974 227.714,77.947 227.243 L 76.494 226.906 76.247 228.709 C 75.934 230.993,75.922 247.111,76.232 248.662 L 76.465 249.824 83.932 249.790 C 92.982 249.749,98.115 250.222,98.978 251.175 C 99.894 252.188,100.224 256.852,100.000 265.600 C 99.831 272.177,99.894 273.500,100.400 274.035 C 100.730 274.384,101.180 274.981,101.400 275.361 C 101.759 275.980,102.005 276.000,103.800 275.548 C 104.900 275.272,108.050 275.017,110.800 274.981 C 113.550 274.946,116.638 274.780,117.662 274.611 C 120.987 274.064,123.787 275.794,124.316 278.724 C 124.740 281.078,124.634 296.898,124.189 297.618 C 124.052 297.840,124.493 298.539,125.170 299.172 C 125.846 299.804,126.400 300.588,126.400 300.914 C 126.400 301.435,126.606 301.432,128.100 300.896 C 130.599 299.998,141.895 299.854,144.600 300.684 C 148.601 301.913,148.982 303.319,148.743 315.972 C 148.633 321.776,148.715 323.600,149.086 323.600 C 149.466 323.600,149.577 307.362,149.593 249.200 C 149.609 189.414,149.513 174.809,149.106 174.846 C 148.828 174.871,147.880 175.047,147.000 175.236 M252.530 200.287 C 250.361 200.559,250.426 199.827,250.309 225.430 L 250.200 249.400 261.793 249.272 C 269.127 249.191,273.572 248.989,273.893 248.723 C 274.280 248.402,274.400 245.675,274.400 237.195 C 274.400 222.614,272.749 224.260,287.664 223.979 C 294.119 223.858,299.445 223.723,299.500 223.679 C 299.555 223.636,299.600 218.290,299.600 211.800 L 299.600 200.000 276.700 200.064 C 264.105 200.099,253.228 200.200,252.530 200.287 M153.100 325.473 C 152.275 325.569,151.600 325.817,151.600 326.024 C 151.600 326.547,170.277 326.523,170.600 326.000 C 170.750 325.757,170.169 325.597,169.124 325.593 C 168.176 325.589,164.520 325.521,161.000 325.442 C 157.480 325.363,153.925 325.377,153.100 325.473 " stroke="none" fill="#c8bda4" fill-rule="evenodd"></path><path id="path1" d="M226.049 25.508 C 225.370 26.778,225.345 45.594,226.022 46.022 C 226.920 46.590,249.087 46.506,249.441 45.934 C 250.071 44.914,249.585 26.249,248.908 25.500 C 247.934 24.421,226.627 24.429,226.049 25.508 M206.600 50.383 L 201.000 50.600 200.736 56.400 C 200.172 68.785,200.397 96.114,201.071 97.154 L 201.689 98.108 212.345 97.821 C 218.205 97.663,223.160 97.380,223.355 97.192 C 223.738 96.823,224.090 53.465,223.728 51.300 L 223.511 50.000 217.855 50.083 C 214.745 50.128,209.680 50.263,206.600 50.383 M255.200 50.273 C 254.196 50.438,252.000 51.210,252.000 51.398 C 252.000 51.453,252.382 52.361,252.848 53.416 C 253.652 55.234,253.682 55.724,253.411 62.772 C 253.143 69.774,253.171 70.249,253.887 70.897 C 254.957 71.866,272.975 71.851,274.100 70.880 C 275.192 69.938,275.163 51.653,274.069 50.662 C 273.367 50.027,258.556 49.722,255.200 50.273 M278.782 75.619 C 277.838 76.561,277.993 95.252,278.960 97.122 C 279.727 98.607,279.670 98.591,281.268 97.765 C 282.289 97.237,282.803 97.206,284.301 97.584 C 285.953 98.000,288.387 97.941,293.549 97.361 C 294.802 97.220,295.497 97.344,296.000 97.800 C 296.387 98.150,297.220 98.473,297.851 98.518 L 299.000 98.600 299.112 87.600 C 299.174 81.550,299.137 76.240,299.030 75.800 C 298.764 74.707,279.866 74.538,278.782 75.619 M186.906 100.296 L 176.412 100.413 176.171 101.374 C 175.911 102.409,176.211 121.144,176.492 121.425 C 176.585 121.518,181.231 121.685,186.817 121.797 C 192.402 121.909,197.288 122.101,197.673 122.223 C 198.747 122.564,198.836 121.557,198.713 110.405 C 198.616 101.668,198.514 100.208,198.000 100.195 C 197.670 100.187,192.678 100.232,186.906 100.296 M226.358 101.294 C 226.258 102.484,226.505 104.215,226.800 104.400 C 226.976 104.510,226.938 107.005,226.716 109.944 C 226.407 114.019,226.427 115.502,226.797 116.194 C 227.156 116.865,227.168 117.313,226.841 117.924 C 225.012 121.340,226.294 121.757,238.700 121.781 L 248.800 121.800 249.014 120.600 C 249.131 119.940,249.176 115.260,249.113 110.200 L 249.000 101.000 237.700 100.894 C 228.814 100.810,226.391 100.896,226.358 101.294 M303.720 101.103 C 303.354 101.347,303.328 103.076,303.611 108.411 C 303.814 112.255,303.870 116.528,303.735 117.907 C 303.496 120.338,304.257 122.383,305.188 121.808 C 305.545 121.587,306.515 121.568,315.941 121.603 C 325.678 121.638,324.800 122.447,324.800 113.438 C 324.800 108.428,324.977 105.496,325.372 103.987 C 325.745 102.560,325.808 101.661,325.552 101.400 C 325.080 100.916,304.425 100.636,303.720 101.103 M329.024 125.687 C 328.375 126.613,328.125 169.667,328.751 172.600 L 329.007 173.800 339.662 174.000 C 350.909 174.211,351.050 174.235,352.494 176.200 C 352.656 176.420,352.791 181.552,352.794 187.604 C 352.799 197.651,352.861 198.644,353.500 199.032 C 354.622 199.713,373.698 199.548,374.539 198.851 C 375.552 198.010,375.553 151.991,374.540 151.149 C 374.029 150.724,371.364 150.555,362.750 150.400 C 348.249 150.139,349.787 151.690,349.855 137.401 C 349.900 127.978,349.821 126.349,349.294 125.912 C 348.846 125.540,346.361 125.383,340.075 125.329 C 335.342 125.288,331.060 125.151,330.559 125.025 C 329.903 124.861,329.473 125.047,329.024 125.687 M253.659 126.090 C 252.510 126.393,252.359 126.570,252.606 127.322 C 252.765 127.805,252.948 130.180,253.014 132.600 C 253.080 135.020,253.317 137.476,253.541 138.057 C 253.907 139.008,253.364 143.124,252.610 145.111 C 252.160 146.298,254.829 147.270,257.800 147.001 C 259.340 146.862,260.780 146.767,261.000 146.791 C 263.256 147.032,273.698 146.966,273.856 146.709 C 274.357 145.899,274.311 126.424,273.808 126.007 C 273.192 125.495,255.635 125.567,253.659 126.090 M150.600 126.228 C 150.097 126.444,150.324 145.610,150.837 146.238 C 151.467 147.008,170.054 146.932,172.006 146.151 L 173.600 145.513 173.600 139.951 C 173.600 136.218,173.437 134.128,173.104 133.595 C 172.723 132.985,172.716 132.627,173.073 132.054 C 173.329 131.644,173.586 130.159,173.643 128.754 L 173.748 126.200 162.374 126.128 C 156.118 126.089,150.820 126.134,150.600 126.228 M135.823 150.300 C 127.997 150.398,126.540 150.512,125.923 151.070 C 125.066 151.845,124.840 167.880,125.633 171.580 L 126.066 173.600 135.804 173.600 L 145.543 173.600 146.327 171.500 C 147.857 167.399,146.944 149.432,145.238 150.092 C 145.107 150.143,140.870 150.236,135.823 150.300 M278.443 151.161 C 277.748 151.606,278.065 168.717,278.824 171.731 L 279.298 173.614 289.149 173.507 L 299.000 173.400 299.000 162.200 L 299.000 151.000 289.000 150.902 C 283.500 150.849,278.749 150.965,278.443 151.161 M109.742 175.499 C 103.651 175.583,101.174 175.753,100.887 176.108 C 100.652 176.398,100.429 181.126,100.344 187.600 L 100.200 198.600 110.949 198.600 L 121.697 198.600 121.626 187.631 C 121.548 175.668,121.458 175.151,119.486 175.292 C 118.779 175.342,114.394 175.436,109.742 175.499 M304.097 176.332 C 303.700 176.584,303.615 181.671,303.697 200.426 L 303.800 224.200 326.248 224.303 C 343.905 224.385,348.783 224.299,349.101 223.903 C 349.664 223.204,349.993 201.753,349.449 201.209 C 349.192 200.952,345.241 200.796,338.820 200.790 C 328.216 200.781,325.775 200.527,324.911 199.346 C 324.526 198.819,324.400 195.924,324.400 187.566 C 324.400 177.831,324.323 176.456,323.767 176.243 C 322.821 175.880,304.680 175.962,304.097 176.332 M76.188 200.887 C 76.077 201.175,76.035 206.448,76.094 212.605 L 76.200 223.800 85.400 223.917 C 90.460 223.981,95.185 223.928,95.900 223.798 L 97.200 223.564 97.200 212.396 C 97.200 202.156,97.142 201.200,96.500 200.889 C 95.249 200.284,76.420 200.282,76.188 200.887 M50.230 228.100 C 49.697 232.233,49.790 273.588,50.333 273.796 C 51.061 274.075,71.389 274.056,72.121 273.775 C 72.616 273.585,72.631 273.292,72.216 271.875 C 71.863 270.670,71.707 264.808,71.658 251.000 C 71.621 240.440,71.480 230.585,71.344 229.100 L 71.097 226.400 60.773 226.400 L 50.449 226.400 50.230 228.100 M278.421 227.900 C 277.737 230.361,277.868 248.592,278.573 249.178 C 279.537 249.977,298.358 249.762,299.266 248.941 C 299.898 248.368,299.952 247.554,299.816 240.653 C 299.734 236.444,299.651 231.515,299.633 229.700 L 299.600 226.400 289.219 226.400 L 278.838 226.400 278.421 227.900 M253.416 253.655 C 252.603 254.620,252.544 254.955,252.850 256.866 C 253.235 259.277,253.324 263.913,253.119 270.845 C 252.998 274.941,252.610 274.800,264.014 274.800 C 276.146 274.800,274.934 276.054,274.705 263.740 L 274.528 254.233 273.496 253.462 C 272.555 252.759,271.672 252.687,263.393 252.634 L 254.322 252.577 253.416 253.655 M76.266 277.300 C 75.955 278.566,75.859 298.870,76.161 299.600 C 76.401 300.181,94.859 300.348,97.449 299.793 C 98.401 299.588,98.813 290.035,97.993 287.176 C 97.741 286.297,97.759 285.363,98.046 284.405 C 98.774 281.973,98.086 279.725,96.199 278.371 C 94.426 277.099,94.698 277.123,85.859 277.441 C 81.029 277.614,79.625 277.537,78.351 277.027 C 76.399 276.246,76.529 276.229,76.266 277.300 M229.294 278.409 C 227.915 278.558,226.717 278.752,226.631 278.840 C 226.545 278.928,226.418 283.500,226.348 289.000 L 226.222 299.000 237.657 299.106 C 250.988 299.230,250.150 299.504,249.703 295.155 C 249.537 293.530,249.490 289.337,249.600 285.838 C 249.738 281.458,249.660 279.284,249.350 278.861 C 248.854 278.185,234.382 277.859,229.294 278.409 M102.400 302.704 C 100.551 302.986,100.402 303.634,100.366 311.576 C 100.348 315.659,100.204 320.024,100.048 321.275 C 99.686 324.166,98.933 323.989,111.600 323.988 C 123.060 323.988,123.156 323.967,122.472 321.683 C 121.916 319.828,121.922 311.695,122.480 309.433 C 123.548 305.108,121.760 303.171,116.526 302.983 C 106.676 302.629,103.329 302.563,102.400 302.704 M206.700 303.111 C 201.336 303.220,201.199 303.244,201.146 304.111 C 201.117 304.600,201.072 309.603,201.046 315.230 L 201.000 325.460 199.880 326.930 L 198.759 328.400 187.622 328.400 C 177.836 328.400,176.456 328.477,176.243 329.033 C 176.109 329.381,176.000 334.066,176.000 339.446 C 176.000 354.052,177.078 352.982,162.290 353.055 C 153.329 353.099,151.034 353.219,150.758 353.655 C 149.992 354.863,150.332 373.814,151.131 374.538 C 152.290 375.586,198.562 375.549,199.020 374.500 C 199.188 374.115,199.357 368.804,199.395 362.698 L 199.465 351.595 200.432 350.550 L 201.400 349.504 212.480 349.696 L 223.561 349.889 223.764 348.844 C 224.025 347.506,223.866 303.727,223.600 303.484 C 223.302 303.212,212.980 302.984,206.700 303.111 M126.253 327.471 C 125.903 328.632,125.830 348.500,126.172 349.542 C 126.436 350.347,126.662 350.448,127.728 350.234 C 128.415 350.097,132.823 349.869,137.524 349.728 C 147.684 349.422,147.802 349.378,147.677 345.953 C 147.524 341.740,147.515 340.981,147.600 339.400 C 147.647 338.520,147.684 336.450,147.681 334.800 C 147.678 333.150,147.704 331.283,147.738 330.651 C 147.872 328.166,146.534 327.783,138.204 327.925 C 131.574 328.037,129.340 327.843,127.011 326.949 C 126.713 326.834,126.374 327.067,126.253 327.471 " stroke="none" fill="#373328" fill-rule="evenodd"></path><path id="path2" d="M0.000 200.000 L 0.000 400.000 200.000 400.000 L 400.000 400.000 400.000 200.000 L 400.000 0.000 200.000 0.000 L 0.000 0.000 0.000 200.000 M249.742 24.910 C 250.529 25.963,250.572 26.547,250.598 36.510 C 250.617 43.721,250.771 47.261,251.093 47.836 C 251.637 48.810,261.193 49.416,268.468 48.938 C 275.819 48.455,275.600 48.027,275.600 62.880 L 275.600 74.200 287.141 74.088 C 297.102 73.992,298.752 74.061,299.190 74.588 C 299.984 75.544,300.678 75.311,300.940 74.000 C 301.160 72.902,301.326 72.796,302.890 72.748 C 303.830 72.720,305.050 72.659,305.600 72.612 C 306.150 72.565,315.961 72.385,327.402 72.211 L 348.204 71.895 349.779 73.248 C 353.579 76.512,353.200 74.942,353.200 87.400 L 353.200 98.436 352.218 99.418 C 351.019 100.618,336.208 101.068,326.600 100.198 L 324.200 99.980 325.160 100.737 L 326.121 101.495 325.893 109.247 C 325.712 115.403,326.051 123.028,326.524 123.449 C 326.947 123.825,331.377 124.081,339.132 124.176 C 347.723 124.282,348.549 124.355,349.532 125.088 L 350.600 125.884 350.852 136.974 C 350.990 143.073,351.266 148.226,351.464 148.424 C 352.173 149.133,357.936 149.558,365.800 149.480 C 373.586 149.404,373.835 149.426,375.100 150.328 L 376.400 151.254 376.400 175.018 L 376.400 198.782 375.319 199.491 C 374.368 200.114,372.862 200.225,362.901 200.404 C 353.453 200.575,351.503 200.708,351.189 201.204 C 350.977 201.539,350.810 206.649,350.806 212.871 L 350.800 223.942 349.718 224.793 C 348.640 225.641,348.571 225.643,325.818 225.528 C 307.929 225.437,302.806 225.521,302.100 225.920 C 301.215 226.420,301.200 226.559,301.200 234.153 C 301.200 238.401,301.082 243.539,300.938 245.570 C 300.568 250.781,301.323 250.494,287.799 250.563 C 279.919 250.603,276.687 250.753,276.346 251.094 C 276.008 251.432,275.834 254.781,275.745 262.685 C 275.581 277.222,277.264 275.630,262.104 275.588 C 248.582 275.550,249.979 275.310,250.386 277.600 C 250.889 280.437,250.618 298.742,250.064 299.296 C 249.359 300.001,249.504 300.568,250.500 301.005 L 251.400 301.400 251.511 324.800 C 251.632 350.519,251.697 349.406,249.953 351.393 L 248.717 352.800 237.690 352.800 C 225.703 352.800,225.200 352.709,225.200 350.538 C 225.200 349.466,224.723 349.329,224.005 350.194 C 223.595 350.688,221.631 350.805,212.261 350.894 L 201.010 351.000 200.699 353.000 C 200.528 354.100,200.346 359.328,200.294 364.618 C 200.210 373.212,200.121 374.356,199.458 375.367 L 198.717 376.499 174.858 376.237 C 151.346 375.979,150.990 375.963,150.300 375.143 C 149.524 374.221,149.530 374.314,149.420 361.200 C 149.381 356.470,149.213 352.303,149.047 351.941 C 148.671 351.118,138.875 350.557,131.406 350.930 C 126.622 351.170,126.610 351.168,125.506 350.110 L 124.400 349.050 124.400 350.249 C 124.400 352.998,125.954 352.836,99.837 352.817 L 76.289 352.799 74.444 351.121 C 71.944 348.847,72.005 349.015,72.009 344.340 C 72.012 342.063,72.016 337.770,72.018 334.800 C 72.024 328.353,71.450 326.400,69.550 326.400 C 68.701 326.400,68.267 326.697,67.804 327.593 C 67.188 328.783,67.184 328.784,66.393 327.993 C 65.476 327.076,58.700 326.791,58.171 327.647 C 57.526 328.690,51.682 327.658,49.548 326.124 C 46.646 324.039,46.800 325.514,46.800 299.849 L 46.800 276.445 47.689 275.823 C 48.178 275.480,49.019 275.200,49.559 275.200 L 50.539 275.200 49.670 274.274 L 48.800 273.348 48.800 249.862 C 48.800 229.354,48.876 226.346,49.400 226.145 C 50.291 225.803,50.128 225.319,49.028 225.043 C 46.627 224.440,46.800 229.303,46.800 162.416 C 46.800 104.771,46.840 101.243,47.500 100.489 C 48.790 99.017,50.527 98.800,61.029 98.800 L 71.138 98.800 71.664 97.300 C 72.053 96.191,72.168 93.297,72.104 86.202 L 72.018 76.605 74.297 74.302 L 76.575 72.000 102.587 72.016 C 116.894 72.024,133.081 72.190,138.558 72.383 L 148.516 72.734 149.558 73.776 L 150.600 74.817 150.700 85.909 C 150.755 92.009,150.894 97.405,151.008 97.900 L 151.215 98.800 162.585 98.800 C 173.781 98.800,173.964 98.813,174.560 99.664 C 175.073 100.396,175.261 100.447,175.799 100.001 C 176.280 99.601,179.110 99.440,187.517 99.332 C 193.613 99.253,198.825 99.107,199.100 99.007 C 199.492 98.864,199.600 93.718,199.601 75.113 C 199.603 52.179,199.629 51.357,200.396 50.100 L 201.188 48.800 212.734 48.800 L 224.280 48.800 224.540 45.139 C 224.683 43.125,224.800 37.929,224.800 33.592 C 224.800 26.207,224.853 25.641,225.634 24.648 L 226.468 23.588 237.691 23.694 L 248.914 23.800 249.742 24.910 M145.327 54.396 C 149.263 54.400,149.918 54.784,148.600 56.317 C 147.829 57.213,142.237 58.022,140.796 57.445 C 139.909 57.090,138.136 56.800,136.855 56.800 C 135.575 56.800,133.644 56.532,132.564 56.204 C 131.484 55.877,129.430 55.604,128.000 55.598 C 125.334 55.587,123.623 55.065,124.811 54.625 C 125.487 54.375,137.894 54.083,140.000 54.268 C 140.770 54.336,143.167 54.393,145.327 54.396 M323.000 57.581 L 326.200 57.656 324.600 58.255 C 321.184 59.534,298.689 58.905,300.816 57.590 C 301.208 57.348,312.956 57.343,323.000 57.581 M135.033 66.900 C 135.785 67.652,133.087 67.719,105.524 67.636 C 76.941 67.550,74.935 67.489,76.057 66.736 C 76.709 66.299,134.594 66.460,135.033 66.900 M348.567 66.643 C 350.545 67.402,348.011 67.600,336.333 67.600 C 329.257 67.600,323.578 67.489,323.713 67.354 C 324.518 66.548,346.670 65.915,348.567 66.643 M140.400 67.200 C 140.070 67.413,139.440 67.588,139.000 67.588 C 138.560 67.588,137.930 67.413,137.600 67.200 C 137.169 66.921,137.563 66.812,139.000 66.812 C 140.437 66.812,140.831 66.921,140.400 67.200 M320.600 67.586 C 320.160 67.769,319.038 68.123,318.107 68.373 C 317.175 68.623,316.224 69.182,315.992 69.614 C 315.080 71.320,311.555 70.145,310.671 67.840 C 310.453 67.272,311.040 67.203,315.913 67.227 C 319.222 67.243,321.083 67.386,320.600 67.586 M67.757 75.832 C 68.037 76.562,67.653 78.400,67.221 78.400 C 66.576 78.400,65.962 76.328,66.437 75.755 C 67.040 75.029,67.458 75.053,67.757 75.832 M367.813 75.620 C 368.279 76.375,368.085 98.875,367.608 99.352 C 367.293 99.667,366.871 99.619,366.090 99.181 L 365.009 98.574 364.990 87.450 C 364.971 76.750,365.001 76.305,365.774 75.763 C 366.730 75.094,367.456 75.043,367.813 75.620 M57.768 76.127 C 58.443 76.621,58.446 76.696,57.816 77.327 C 56.437 78.706,53.695 77.752,54.287 76.100 C 54.524 75.440,56.854 75.458,57.768 76.127 M58.150 87.650 C 58.914 91.472,58.366 93.053,56.294 93.001 C 53.352 92.927,53.048 88.264,55.909 87.090 C 57.934 86.258,57.868 86.242,58.150 87.650 M67.955 88.044 C 68.380 89.261,67.921 92.518,67.213 93.313 C 66.457 94.162,65.488 88.942,66.200 87.856 C 67.095 86.490,67.426 86.525,67.955 88.044 M165.200 88.646 L 168.200 88.944 165.800 89.720 C 161.873 90.989,154.633 90.434,156.091 88.975 C 156.387 88.680,160.589 88.077,161.400 88.213 C 161.840 88.287,163.550 88.482,165.200 88.646 M75.885 100.834 C 75.204 101.237,75.175 103.555,75.275 150.128 C 75.336 178.429,75.228 199.324,75.020 199.769 C 74.710 200.433,74.767 200.488,75.431 200.170 C 75.854 199.967,81.150 199.710,87.200 199.600 C 93.250 199.490,98.425 199.254,98.700 199.076 C 99.081 198.830,99.200 196.040,99.200 187.386 L 99.200 176.018 100.282 175.309 C 101.241 174.681,102.559 174.592,111.852 174.530 C 118.642 174.485,122.633 174.303,123.170 174.016 C 124.077 173.531,124.365 167.857,124.055 156.600 C 123.934 152.236,123.998 151.705,124.750 150.751 L 125.579 149.701 136.289 149.518 C 142.180 149.417,147.471 149.465,148.046 149.624 C 149.711 150.084,150.052 149.612,149.673 147.374 C 149.141 144.224,149.343 126.497,149.918 125.922 C 150.774 125.066,150.459 124.400,149.200 124.400 C 148.540 124.400,147.999 124.265,147.998 124.100 C 147.997 123.935,147.961 119.210,147.919 113.600 C 147.876 107.990,147.983 102.916,148.157 102.325 C 148.451 101.327,148.364 101.222,146.937 100.844 C 144.771 100.270,76.855 100.261,75.885 100.834 M45.797 101.700 C 46.209 103.445,45.818 223.596,45.400 223.700 C 44.993 223.802,44.296 103.545,44.693 101.700 C 44.800 101.205,45.044 100.800,45.236 100.800 C 45.428 100.800,45.680 101.205,45.797 101.700 M336.400 104.933 C 336.400 105.778,335.956 106.004,335.147 105.572 C 334.090 105.006,334.221 104.400,335.400 104.400 C 335.967 104.400,336.400 104.631,336.400 104.933 M139.730 123.839 C 139.454 124.558,139.023 124.551,138.416 123.819 C 138.037 123.363,138.048 123.110,138.467 122.643 C 139.111 121.924,140.104 122.864,139.730 123.839 M46.288 288.774 C 46.192 295.498,46.044 306.085,45.957 312.300 C 45.859 319.367,45.650 323.637,45.400 323.700 C 44.985 323.804,44.594 277.120,45.001 276.055 C 45.173 275.606,45.320 275.602,45.835 276.029 C 46.385 276.485,46.440 278.034,46.288 288.774 M36.400 287.800 C 36.400 298.039,36.160 300.836,35.442 298.965 C 35.117 298.119,35.130 276.603,35.456 276.278 C 36.236 275.497,36.400 277.500,36.400 287.800 M75.027 301.100 C 75.202 301.925,75.364 307.281,75.388 313.002 C 75.412 318.724,75.571 323.629,75.740 323.902 C 75.971 324.277,78.541 324.406,86.124 324.424 C 91.666 324.437,97.100 324.598,98.200 324.781 C 100.531 325.169,100.766 325.068,99.862 324.069 C 99.280 323.425,99.200 322.205,99.233 314.366 C 99.253 309.435,99.179 305.130,99.068 304.800 C 98.957 304.470,98.762 303.719,98.634 303.131 C 98.223 301.247,96.578 300.986,85.911 301.112 C 76.746 301.220,76.404 301.196,75.915 300.412 C 75.113 299.128,74.682 299.462,75.027 301.100 M67.834 332.065 C 68.524 333.400,68.450 335.256,67.622 337.375 L 67.163 338.550 66.402 337.300 C 65.596 335.974,65.645 334.060,66.540 331.900 C 67.101 330.544,67.043 330.537,67.834 332.065 M58.185 337.289 C 58.045 338.120,57.867 338.800,57.791 338.800 C 56.980 338.800,55.609 337.909,55.842 337.533 C 56.037 337.217,55.914 337.148,55.466 337.319 C 54.940 337.521,54.800 337.334,54.800 336.430 C 54.800 335.481,55.056 335.183,56.300 334.685 C 58.102 333.963,58.625 334.685,58.185 337.289 M57.929 348.589 C 57.845 348.974,57.613 349.062,57.263 348.843 C 56.814 348.562,56.814 348.366,57.263 347.640 C 57.824 346.734,58.214 347.291,57.929 348.589 M67.594 348.500 C 67.597 348.885,67.420 349.200,67.200 349.200 C 66.980 349.200,66.803 348.615,66.806 347.900 C 66.811 346.914,66.906 346.745,67.200 347.200 C 67.413 347.530,67.591 348.115,67.594 348.500 M120.882 357.897 C 119.278 357.973,116.758 357.973,115.282 357.896 C 113.807 357.819,115.120 357.757,118.200 357.758 C 121.280 357.758,122.487 357.821,120.882 357.897 M116.100 367.061 L 118.800 367.316 118.800 368.858 L 118.800 370.400 97.600 370.400 L 76.400 370.400 76.400 368.800 L 76.400 367.200 80.311 367.200 C 83.727 367.200,84.309 367.301,84.907 368.000 C 85.867 369.121,89.180 369.127,90.191 368.009 C 90.840 367.293,91.528 367.208,97.553 367.099 C 101.209 367.033,106.270 366.940,108.800 366.892 C 111.330 366.845,114.615 366.920,116.100 367.061 M246.600 367.993 C 248.510 368.191,248.600 368.254,248.600 369.400 L 248.600 370.600 237.500 370.706 L 226.400 370.813 226.400 369.443 L 226.400 368.074 228.601 367.937 C 229.839 367.860,230.859 367.975,230.933 368.200 C 231.086 368.663,241.020 368.998,243.091 368.609 C 244.295 368.383,244.395 368.275,243.929 367.700 C 243.478 367.143,243.489 367.101,244.000 367.416 C 244.330 367.619,245.500 367.879,246.600 367.993 " stroke="none" fill="#933232" fill-rule="evenodd"></path><path id="path3" d="M226.267 74.667 C 225.925 75.008,225.916 94.679,226.256 96.381 C 226.635 98.274,227.373 98.399,238.942 98.530 C 246.061 98.611,249.679 98.800,250.274 99.124 C 251.358 99.715,273.635 99.805,274.220 99.221 C 274.452 98.989,274.522 94.349,274.400 87.321 L 274.200 75.800 263.200 75.600 C 255.459 75.459,251.941 75.252,251.326 74.900 C 250.387 74.362,226.791 74.143,226.267 74.667 M75.476 75.916 C 74.884 76.570,74.729 98.062,75.312 98.645 C 75.564 98.898,147.039 98.864,147.664 98.611 C 148.029 98.463,148.447 97.868,148.592 97.289 C 149.032 95.537,148.835 76.275,148.373 75.813 C 147.513 74.952,76.257 75.053,75.476 75.916 M303.080 75.839 C 302.173 76.331,302.019 76.612,302.270 77.323 C 302.440 77.805,302.584 82.070,302.590 86.800 C 302.599 94.601,302.675 95.549,303.403 97.000 L 304.206 98.600 326.203 98.800 C 350.450 99.020,349.463 99.060,349.846 97.857 C 350.507 95.782,350.054 76.229,349.333 75.702 C 348.216 74.885,304.602 75.014,303.080 75.839 M50.500 100.888 L 49.600 101.322 49.600 162.418 C 49.600 217.761,49.660 223.537,50.233 223.757 C 51.277 224.158,71.347 224.021,72.000 223.609 C 72.507 223.288,72.612 221.502,72.677 212.115 C 72.719 206.002,72.849 200.460,72.966 199.800 C 73.687 195.733,73.296 101.043,72.557 100.753 C 71.328 100.271,51.528 100.392,50.500 100.888 M150.880 100.880 C 150.239 101.521,150.200 120.724,150.838 122.123 C 151.564 123.717,167.328 124.027,171.526 122.529 C 173.921 121.675,174.000 121.293,174.000 110.564 L 174.000 101.180 172.974 100.790 C 171.418 100.199,151.480 100.280,150.880 100.880 M225.373 126.200 C 225.267 126.640,225.230 160.120,225.291 200.600 L 225.400 274.200 237.200 274.200 L 249.000 274.200 249.229 262.600 C 249.371 255.366,249.635 250.474,249.929 249.603 C 250.269 248.593,250.400 241.693,250.400 224.752 C 250.400 203.428,250.460 201.248,251.061 200.749 C 251.601 200.300,256.058 200.178,275.458 200.082 L 299.194 199.964 299.409 199.082 C 299.528 198.597,299.574 193.250,299.512 187.200 L 299.400 176.200 288.000 175.993 C 280.043 175.849,276.336 175.638,275.726 175.293 C 275.089 174.934,271.719 174.800,263.288 174.800 C 252.593 174.800,251.674 174.745,251.062 174.069 C 250.479 173.424,250.400 171.982,250.400 161.914 C 250.400 152.560,250.292 150.284,249.802 149.346 C 249.314 148.410,249.204 146.163,249.202 137.087 C 249.201 128.562,249.084 125.933,248.700 125.795 C 246.696 125.075,225.554 125.442,225.373 126.200 M162.400 150.795 L 151.000 151.000 150.800 162.439 C 150.653 170.875,150.466 174.039,150.090 174.492 C 149.680 174.985,149.586 189.717,149.612 249.304 L 149.643 323.501 150.567 324.369 C 151.722 325.454,172.844 325.527,174.140 324.450 C 174.928 323.795,174.988 150.703,174.200 150.629 C 173.980 150.608,168.670 150.683,162.400 150.795 M50.337 277.914 C 49.978 278.996,49.805 285.401,49.701 301.477 L 49.557 323.553 50.562 324.212 C 51.917 325.100,71.849 324.957,72.939 324.051 C 73.814 323.324,73.925 303.353,73.071 300.400 C 72.753 299.301,72.606 297.198,72.693 295.000 C 73.109 284.518,72.834 279.634,71.733 277.970 L 70.695 276.402 60.763 276.415 L 50.830 276.428 50.337 277.914 M229.516 302.586 C 228.040 302.832,226.690 303.176,226.516 303.350 C 226.047 303.819,225.920 348.473,226.386 349.200 C 227.036 350.215,248.258 350.337,249.022 349.329 C 249.476 348.730,249.577 344.712,249.587 326.760 C 249.601 303.205,249.541 302.443,247.661 302.344 C 242.612 302.080,231.676 302.226,229.516 302.586 M75.445 327.026 C 74.657 329.080,74.788 348.388,75.595 349.195 C 76.804 350.404,119.845 350.458,121.822 349.252 L 123.043 348.507 123.119 339.218 L 123.195 329.929 121.797 328.222 L 120.399 326.516 114.299 326.707 C 110.945 326.812,107.930 326.861,107.600 326.815 C 103.581 326.259,75.669 326.442,75.445 327.026 " stroke="none" fill="#f9c021" fill-rule="evenodd"></path><path id="path4" d="M224.394 72.700 C 224.391 86.505,224.250 98.017,224.081 98.283 C 223.856 98.637,220.629 98.796,211.920 98.883 C 205.400 98.947,199.916 99.150,199.733 99.332 C 199.550 99.515,199.384 101.495,199.365 103.732 C 199.345 105.970,199.391 106.540,199.466 105.000 C 199.768 98.811,198.886 99.200,212.596 99.200 C 225.038 99.200,225.200 99.220,225.200 100.732 C 225.200 101.772,225.204 101.773,225.795 100.929 C 226.572 99.819,247.436 99.563,249.109 100.643 L 250.017 101.230 249.844 111.515 C 249.749 117.172,249.544 122.205,249.389 122.700 L 249.107 123.600 238.972 123.600 C 229.613 123.600,227.640 123.425,226.400 122.487 C 226.290 122.403,226.102 117.985,225.983 112.668 L 225.766 103.000 225.683 112.440 C 225.630 118.478,225.758 122.335,226.039 123.140 L 226.478 124.400 237.639 124.400 C 252.000 124.400,250.400 122.771,250.400 137.392 L 250.400 148.785 251.300 148.993 C 251.795 149.107,257.420 149.155,263.800 149.100 L 275.400 149.000 275.506 137.633 C 275.611 126.415,275.601 126.253,274.737 125.333 L 273.861 124.400 262.610 124.400 C 254.393 124.400,251.231 124.271,250.880 123.920 C 250.530 123.570,250.398 120.406,250.394 112.220 C 250.390 105.864,250.224 100.740,250.009 100.400 C 249.691 99.896,247.734 99.768,237.835 99.600 C 230.769 99.480,225.884 99.240,225.654 99.000 C 224.768 98.080,224.909 49.793,225.800 48.789 L 226.600 47.888 237.753 48.139 C 249.686 48.408,249.748 48.419,250.366 50.550 L 250.728 51.800 250.764 50.180 C 250.823 47.533,251.178 47.600,237.120 47.600 L 224.400 47.600 224.394 72.700 M250.893 61.000 C 250.760 75.468,249.483 74.131,263.600 74.305 C 277.049 74.472,275.600 73.009,275.600 86.418 C 275.600 100.571,274.628 99.586,288.200 99.187 L 296.600 98.940 288.200 98.892 C 283.580 98.865,279.497 98.834,279.127 98.822 C 276.988 98.752,276.655 97.036,276.581 85.700 C 276.491 72.007,277.859 73.435,264.689 73.286 L 254.600 73.172 253.000 72.067 L 251.400 70.963 251.189 61.382 L 250.978 51.800 250.893 61.000 M299.912 86.989 L 300.023 98.779 298.912 99.024 C 297.002 99.446,296.951 99.536,298.600 99.575 C 301.538 99.644,301.406 99.050,301.348 111.952 C 301.297 123.449,301.303 123.534,302.148 123.760 C 302.617 123.886,307.644 123.992,313.320 123.995 C 324.399 124.000,325.628 124.198,326.220 126.064 C 326.661 127.451,325.977 173.721,325.508 174.300 C 324.878 175.076,302.845 175.013,301.776 174.233 C 301.045 173.698,300.993 173.013,300.877 162.449 L 300.754 151.232 299.666 150.316 L 298.578 149.400 287.389 149.600 L 276.200 149.800 276.200 161.458 C 276.200 176.447,274.722 174.798,288.162 174.806 C 295.775 174.810,298.871 174.949,299.600 175.318 L 300.600 175.824 300.763 187.812 C 301.153 216.580,301.062 223.508,300.287 224.285 C 299.646 224.927,298.436 225.020,288.400 225.200 C 274.231 225.454,275.854 223.831,275.600 238.000 C 275.430 247.525,275.306 249.268,274.761 249.812 C 274.206 250.365,272.741 250.445,263.716 250.414 C 253.504 250.378,251.438 250.586,250.714 251.725 C 250.548 251.986,250.409 257.071,250.406 263.024 C 250.401 271.728,250.289 273.999,249.833 274.624 C 249.300 275.353,248.561 275.412,237.738 275.600 L 226.210 275.800 225.679 276.909 C 225.284 277.733,225.129 280.781,225.074 288.747 C 225.016 297.169,224.882 299.619,224.451 300.138 C 223.964 300.725,222.621 300.800,212.531 300.800 L 201.159 300.800 200.580 302.187 C 200.125 303.274,200.000 305.763,200.000 313.698 C 200.000 327.056,201.493 325.600,187.796 325.600 C 172.793 325.600,173.847 324.520,174.064 339.680 C 174.167 346.888,174.080 349.280,173.699 349.661 C 172.871 350.489,151.839 350.407,151.002 349.572 C 150.465 349.036,150.361 347.312,150.287 337.686 C 150.177 323.390,151.833 325.022,137.379 324.965 C 123.196 324.910,124.783 326.430,124.883 313.000 C 124.990 298.669,126.331 300.000,111.783 300.000 C 98.608 300.000,100.025 301.426,100.047 288.194 C 100.071 273.837,101.246 275.040,87.039 274.871 C 78.322 274.767,76.076 274.629,75.565 274.167 C 74.588 273.285,73.886 226.755,74.835 225.804 C 75.078 225.561,79.752 225.320,86.559 225.200 C 95.335 225.045,98.028 224.877,98.540 224.451 C 99.125 223.964,99.200 222.616,99.200 212.580 C 99.200 199.325,98.969 200.046,103.400 199.456 C 104.060 199.368,103.494 199.343,102.142 199.399 C 98.552 199.548,98.800 198.631,98.800 211.775 C 98.800 222.189,98.726 223.564,98.139 224.051 C 97.129 224.890,76.339 225.091,75.656 224.268 C 75.301 223.840,75.205 220.660,75.288 212.044 C 75.361 204.410,75.262 200.445,75.000 200.533 C 74.752 200.615,74.524 205.085,74.400 212.314 C 74.249 221.125,74.073 224.088,73.680 224.481 C 73.284 224.875,70.781 225.014,63.280 225.060 C 50.329 225.138,50.000 225.149,50.000 225.500 C 50.000 225.665,54.503 225.749,60.007 225.687 C 72.736 225.542,73.011 225.605,73.343 228.702 C 73.479 229.966,73.612 239.820,73.639 250.600 C 73.667 261.380,73.823 270.951,73.987 271.869 C 74.493 274.704,74.954 274.600,61.849 274.600 C 53.037 274.600,50.164 274.716,50.449 275.059 C 50.717 275.382,53.928 275.520,61.315 275.526 C 67.344 275.530,72.243 275.705,72.843 275.935 C 74.274 276.486,74.390 277.500,74.396 289.500 C 74.398 295.862,74.546 299.600,74.794 299.600 C 75.042 299.600,75.227 295.175,75.294 287.700 L 75.400 275.800 86.000 275.800 C 100.741 275.800,99.533 274.539,99.581 289.974 C 99.618 302.051,98.103 300.724,112.022 300.877 C 120.010 300.965,123.297 301.136,123.641 301.480 C 124.140 301.980,124.450 323.673,123.969 324.450 C 123.832 324.672,119.000 324.779,112.069 324.712 C 105.651 324.650,100.400 324.716,100.400 324.857 C 100.400 325.476,102.232 325.600,111.373 325.600 C 121.259 325.600,123.247 325.843,123.852 327.128 C 124.026 327.498,124.227 332.480,124.299 338.200 C 124.478 352.509,124.958 352.295,125.200 337.800 L 125.400 325.800 136.954 325.887 C 143.309 325.935,148.595 326.062,148.702 326.169 C 149.329 326.796,149.613 331.357,149.561 339.977 L 149.503 349.754 150.435 350.509 C 151.904 351.699,173.411 351.418,174.128 350.200 C 174.442 349.669,174.667 345.972,174.800 339.200 C 174.957 331.195,175.130 328.742,175.605 327.800 L 176.210 326.600 187.481 326.494 L 198.752 326.388 199.576 325.340 C 200.359 324.344,200.400 323.786,200.400 314.133 C 200.400 306.282,200.528 303.667,200.966 302.620 L 201.531 301.266 212.556 301.356 C 218.619 301.406,223.719 301.586,223.890 301.756 C 224.060 301.927,224.249 312.761,224.309 325.833 C 224.376 340.444,224.564 349.600,224.797 349.600 C 225.030 349.600,225.219 340.350,225.288 325.585 C 225.385 304.757,225.480 301.520,226.000 301.191 C 226.341 300.976,231.556 300.810,238.100 300.806 C 247.030 300.801,249.600 300.688,249.600 300.300 C 249.600 299.911,246.954 299.800,237.700 299.800 L 225.800 299.800 225.693 289.400 C 225.545 275.035,224.084 276.411,239.495 276.404 C 252.606 276.399,251.200 277.824,251.200 264.537 C 251.200 249.645,250.230 250.612,264.829 250.944 C 277.630 251.235,276.169 252.841,276.331 238.302 L 276.462 226.538 277.759 226.069 C 278.629 225.755,282.552 225.600,289.652 225.600 C 297.518 225.600,300.413 225.471,300.891 225.100 C 301.464 224.655,301.566 221.958,301.820 200.458 L 302.105 176.315 303.480 175.741 C 305.310 174.976,324.733 175.113,325.677 175.897 C 326.190 176.323,326.247 177.954,326.083 187.354 L 325.891 198.314 326.846 198.857 C 328.106 199.574,348.306 199.893,349.572 199.215 C 350.379 198.783,350.400 198.490,350.400 187.595 L 350.400 176.418 349.435 175.786 C 348.610 175.245,346.983 175.165,338.213 175.235 C 331.803 175.285,327.805 175.165,327.556 174.916 C 326.794 174.154,326.476 169.362,326.645 161.200 C 327.401 124.742,327.391 124.368,325.579 123.793 C 325.174 123.665,320.044 123.541,314.177 123.517 L 303.512 123.474 302.747 122.237 C 302.087 121.171,302.019 120.557,302.254 117.800 C 302.404 116.040,302.499 114.420,302.464 114.200 C 301.915 110.725,302.163 101.141,302.811 100.794 C 303.241 100.564,307.922 100.400,314.054 100.400 C 320.558 100.400,324.415 100.258,324.180 100.027 C 323.971 99.822,318.994 99.597,313.114 99.527 C 299.491 99.365,301.035 100.997,300.867 86.586 C 300.770 78.242,300.610 75.200,300.267 75.200 C 299.919 75.200,299.828 78.198,299.912 86.989 M174.723 111.967 C 174.655 118.329,174.450 123.684,174.267 123.867 C 174.084 124.050,168.639 124.255,162.167 124.322 C 155.137 124.395,150.400 124.597,150.400 124.822 C 150.400 125.051,155.053 125.200,162.173 125.200 C 173.050 125.200,173.960 125.253,174.127 125.900 C 174.538 127.492,174.386 144.954,173.948 146.416 C 173.291 148.609,171.978 148.834,160.240 148.763 C 147.508 148.686,148.800 147.427,148.800 159.912 C 148.800 169.408,148.458 172.852,147.451 173.507 C 147.203 173.668,141.818 173.890,135.485 174.000 C 125.843 174.167,123.906 174.298,123.579 174.800 C 123.345 175.160,123.209 180.026,123.240 186.974 L 123.291 198.549 122.346 198.963 C 121.826 199.191,117.710 199.481,113.200 199.608 L 105.000 199.839 112.800 199.889 C 117.889 199.921,121.156 199.770,122.200 199.455 L 123.800 198.971 123.805 188.786 C 123.812 175.120,123.748 175.751,125.220 174.990 C 126.249 174.458,128.054 174.368,136.720 174.421 C 151.002 174.509,149.600 175.901,149.600 161.629 C 149.600 148.085,148.023 149.600,162.122 149.600 L 173.182 149.600 173.891 148.519 C 174.514 147.569,174.624 146.069,174.800 136.151 C 174.910 129.944,175.151 124.715,175.335 124.532 C 175.519 124.350,180.848 124.240,187.176 124.289 L 198.682 124.378 199.212 123.289 C 199.567 122.560,199.769 120.219,199.823 116.200 L 199.904 110.200 199.603 116.000 C 199.437 119.190,199.167 122.205,199.004 122.700 L 198.707 123.600 187.543 123.600 L 176.380 123.600 175.990 122.574 C 175.772 122.001,175.600 116.876,175.600 110.974 C 175.600 104.612,175.450 100.400,175.223 100.400 C 174.997 100.400,174.796 105.069,174.723 111.967 M274.275 125.662 C 275.309 126.771,275.464 146.918,274.448 148.143 C 273.752 148.981,252.149 148.889,251.628 148.045 C 251.440 147.740,251.268 142.568,251.248 136.552 L 251.210 125.613 252.105 125.418 C 253.773 125.056,254.987 125.000,264.200 124.862 L 273.400 124.724 274.275 125.662 M299.564 150.962 C 300.468 151.924,300.756 172.977,299.878 173.856 C 299.537 174.197,279.502 174.150,278.416 173.805 C 277.112 173.391,276.777 171.122,276.527 160.995 C 276.226 148.826,274.780 150.113,288.830 150.046 L 298.661 150.000 299.564 150.962 M349.106 187.526 L 349.212 198.800 339.306 198.794 C 333.858 198.791,329.157 198.634,328.859 198.445 C 328.415 198.164,328.371 196.174,328.613 187.271 L 328.907 176.439 330.753 176.320 C 331.769 176.254,336.290 176.212,340.800 176.226 L 349.000 176.252 349.106 187.526 " stroke="none" fill="#766a4d" fill-rule="evenodd"></path><path id="path5" d="M225.634 24.648 C 224.850 25.644,224.800 26.204,224.797 33.954 C 224.796 38.489,224.680 43.415,224.539 44.900 L 224.284 47.600 237.093 47.600 C 248.414 47.600,249.965 47.675,250.440 48.248 C 250.850 48.742,251.028 51.526,251.189 59.930 L 251.400 70.964 253.000 72.076 L 254.600 73.188 264.189 73.238 C 269.464 73.265,274.189 73.444,274.689 73.634 L 275.600 73.980 275.600 62.770 C 275.600 48.043,275.813 48.455,268.468 48.938 C 261.193 49.416,251.637 48.810,251.093 47.836 C 250.771 47.261,250.617 43.721,250.598 36.510 C 250.572 26.547,250.529 25.963,249.742 24.910 L 248.914 23.800 237.691 23.694 L 226.468 23.588 225.634 24.648 M248.908 25.500 C 249.585 26.249,250.071 44.914,249.441 45.934 C 249.087 46.506,226.920 46.590,226.022 46.022 C 225.345 45.594,225.370 26.778,226.049 25.508 C 226.627 24.429,247.934 24.421,248.908 25.500 M200.396 50.100 C 199.629 51.357,199.603 52.179,199.601 75.113 C 199.600 93.718,199.492 98.864,199.100 99.007 C 198.825 99.107,193.634 99.253,187.565 99.331 C 181.495 99.409,176.320 99.602,176.065 99.760 C 175.476 100.124,175.408 121.043,175.990 122.574 L 176.380 123.600 187.550 123.600 L 198.720 123.600 199.199 121.603 C 199.527 120.238,199.634 116.456,199.539 109.640 C 199.463 104.159,199.550 99.523,199.733 99.337 C 199.916 99.152,205.400 98.947,211.920 98.883 C 220.629 98.796,223.856 98.637,224.081 98.283 C 224.250 98.017,224.391 86.775,224.394 73.300 L 224.400 48.800 212.794 48.800 L 201.188 48.800 200.396 50.100 M223.728 51.300 C 224.090 53.465,223.738 96.823,223.355 97.192 C 223.160 97.380,218.205 97.663,212.345 97.821 L 201.689 98.108 201.071 97.154 C 200.397 96.114,200.172 68.785,200.736 56.400 L 201.000 50.600 206.600 50.383 C 209.680 50.263,214.745 50.128,217.855 50.083 L 223.511 50.000 223.728 51.300 M274.069 50.662 C 275.163 51.653,275.192 69.938,274.100 70.880 C 272.975 71.851,254.957 71.866,253.887 70.897 C 253.171 70.249,253.143 69.774,253.411 62.772 C 253.682 55.724,253.652 55.234,252.848 53.416 C 252.382 52.361,252.000 51.453,252.000 51.398 C 252.000 51.342,252.495 51.104,253.100 50.867 C 255.886 49.778,272.908 49.612,274.069 50.662 M276.233 74.900 C 276.392 75.395,276.549 80.404,276.584 86.030 C 276.649 96.758,277.024 98.798,278.927 98.801 C 279.187 98.801,283.810 98.819,289.200 98.840 C 294.590 98.861,299.225 98.861,299.500 98.839 C 300.327 98.774,300.210 76.079,299.377 74.889 C 298.759 74.006,298.682 74.000,287.350 74.000 L 275.946 74.000 276.233 74.900 M299.030 75.800 C 299.137 76.240,299.174 81.550,299.112 87.600 L 299.000 98.600 297.851 98.518 C 297.220 98.473,296.387 98.150,296.000 97.800 C 295.497 97.344,294.802 97.220,293.549 97.361 C 288.387 97.941,285.953 98.000,284.301 97.584 C 282.803 97.206,282.289 97.237,281.268 97.765 C 279.670 98.591,279.727 98.607,278.960 97.122 C 277.993 95.252,277.838 76.561,278.782 75.619 C 279.866 74.538,298.764 74.707,299.030 75.800 M198.713 110.405 C 198.836 121.557,198.747 122.564,197.673 122.223 C 197.288 122.101,192.402 121.909,186.817 121.797 C 181.231 121.685,176.585 121.518,176.492 121.425 C 176.211 121.144,175.911 102.409,176.171 101.374 L 176.412 100.413 186.906 100.296 C 192.678 100.232,197.670 100.187,198.000 100.195 C 198.514 100.208,198.616 101.668,198.713 110.405 M226.114 100.539 C 225.805 101.039,225.933 120.478,226.254 121.829 C 226.615 123.347,228.450 123.600,239.082 123.600 L 249.107 123.600 249.389 122.700 C 249.544 122.205,249.749 117.172,249.844 111.515 L 250.017 101.230 249.109 100.643 C 247.929 99.881,226.580 99.785,226.114 100.539 M302.738 100.811 C 302.162 101.147,301.960 111.012,302.464 114.200 C 302.499 114.420,302.404 116.040,302.254 117.800 C 302.019 120.557,302.087 121.171,302.747 122.237 L 303.512 123.474 314.177 123.517 C 320.044 123.541,325.174 123.665,325.579 123.793 C 327.391 124.368,327.401 124.742,326.645 161.200 C 326.476 169.362,326.794 174.154,327.556 174.916 C 327.805 175.165,331.803 175.285,338.213 175.235 C 346.983 175.165,348.610 175.245,349.435 175.786 L 350.400 176.418 350.400 187.595 C 350.400 198.490,350.379 198.783,349.572 199.215 C 348.306 199.893,328.106 199.574,326.846 198.857 L 325.891 198.314 326.083 187.354 C 326.247 177.954,326.190 176.323,325.677 175.897 C 324.733 175.113,305.310 174.976,303.480 175.741 L 302.105 176.315 301.820 200.458 C 301.566 221.958,301.464 224.655,300.891 225.100 C 300.413 225.471,297.518 225.600,289.652 225.600 C 282.552 225.600,278.629 225.755,277.759 226.069 L 276.462 226.538 276.331 238.302 C 276.169 252.841,277.630 251.235,264.829 250.944 C 250.206 250.612,251.200 249.599,251.200 264.826 L 251.200 275.600 262.558 275.600 C 277.192 275.600,275.581 277.178,275.745 262.685 C 275.834 254.781,276.008 251.432,276.346 251.094 C 276.687 250.753,279.919 250.603,287.799 250.563 C 301.323 250.494,300.568 250.781,300.938 245.570 C 301.082 243.539,301.200 238.401,301.200 234.153 C 301.200 226.559,301.215 226.420,302.100 225.920 C 302.806 225.521,307.929 225.437,325.818 225.528 C 348.571 225.643,348.640 225.641,349.718 224.793 L 350.800 223.942 350.806 212.871 C 350.810 206.649,350.977 201.539,351.189 201.204 C 351.503 200.708,353.453 200.575,362.901 200.404 C 372.862 200.225,374.368 200.114,375.319 199.491 L 376.400 198.782 376.400 175.018 L 376.400 151.254 375.100 150.328 C 373.835 149.426,373.586 149.404,365.800 149.480 C 357.936 149.558,352.173 149.133,351.464 148.424 C 351.266 148.226,350.990 143.073,350.852 136.974 L 350.600 125.884 349.532 125.088 C 348.549 124.355,347.723 124.282,339.132 124.176 C 331.377 124.081,326.947 123.825,326.524 123.449 C 326.070 123.045,325.695 115.485,325.837 109.600 C 325.982 103.615,325.924 102.391,325.531 103.200 C 325.218 103.847,324.991 107.120,324.889 112.480 C 324.771 118.667,324.598 120.870,324.206 121.195 C 323.865 121.478,320.974 121.621,315.941 121.603 C 306.515 121.568,305.545 121.587,305.188 121.808 C 304.257 122.383,303.496 120.338,303.735 117.907 C 303.870 116.528,303.814 112.255,303.611 108.411 C 303.328 103.075,303.354 101.350,303.720 101.117 C 304.423 100.670,323.162 100.732,324.803 101.187 C 326.077 101.540,326.132 101.523,325.424 100.987 C 324.502 100.290,303.904 100.130,302.738 100.811 M249.113 110.200 C 249.176 115.260,249.131 119.940,249.014 120.600 L 248.800 121.800 238.700 121.781 C 226.294 121.757,225.012 121.340,226.841 117.924 C 227.168 117.313,227.156 116.865,226.797 116.194 C 226.427 115.502,226.407 114.019,226.716 109.944 C 226.938 107.005,226.976 104.510,226.800 104.400 C 226.505 104.215,226.258 102.484,226.358 101.294 C 226.391 100.896,228.814 100.810,237.700 100.894 L 249.000 101.000 249.113 110.200 M254.000 125.112 C 253.450 125.174,252.597 125.311,252.105 125.418 L 251.210 125.613 251.248 136.552 C 251.268 142.568,251.440 147.740,251.628 148.045 C 252.149 148.889,273.752 148.981,274.448 148.143 C 275.464 146.918,275.309 126.771,274.275 125.662 L 273.400 124.724 264.200 124.862 C 259.140 124.938,254.550 125.050,254.000 125.112 M340.075 125.329 C 346.361 125.383,348.846 125.540,349.294 125.912 C 349.821 126.349,349.900 127.978,349.855 137.401 C 349.787 151.690,348.249 150.139,362.750 150.400 C 371.364 150.555,374.029 150.724,374.540 151.149 C 375.553 151.991,375.552 198.010,374.539 198.851 C 373.698 199.548,354.622 199.713,353.500 199.032 C 352.861 198.644,352.799 197.651,352.794 187.604 C 352.791 181.552,352.656 176.420,352.494 176.200 C 351.050 174.235,350.909 174.211,339.662 174.000 L 329.007 173.800 328.751 172.600 C 328.610 171.940,328.473 161.315,328.447 148.989 C 328.396 124.546,328.401 124.484,330.559 125.025 C 331.060 125.151,335.342 125.288,340.075 125.329 M149.943 125.900 C 149.331 126.637,149.128 147.313,149.723 148.276 C 150.097 148.880,169.384 148.967,171.734 148.375 C 173.287 147.984,173.547 147.753,173.948 146.416 C 174.386 144.954,174.538 127.492,174.127 125.900 C 173.960 125.253,173.053 125.200,162.235 125.200 C 151.570 125.200,150.472 125.263,149.943 125.900 M273.808 126.007 C 274.311 126.424,274.357 145.899,273.856 146.709 C 273.698 146.966,263.256 147.032,261.000 146.791 C 260.780 146.767,259.340 146.862,257.800 147.001 C 254.829 147.270,252.160 146.298,252.610 145.111 C 253.364 143.124,253.907 139.008,253.541 138.057 C 253.317 137.476,253.080 135.020,253.014 132.600 C 252.948 130.180,252.765 127.805,252.606 127.322 C 252.359 126.570,252.510 126.393,253.659 126.090 C 255.635 125.567,273.192 125.495,273.808 126.007 M173.643 128.754 C 173.586 130.159,173.329 131.644,173.073 132.054 C 172.716 132.627,172.723 132.985,173.104 133.595 C 173.437 134.128,173.600 136.218,173.600 139.951 L 173.600 145.513 172.006 146.151 C 170.054 146.932,151.467 147.008,150.837 146.238 C 150.324 145.610,150.097 126.444,150.600 126.228 C 150.820 126.134,156.118 126.089,162.374 126.128 L 173.748 126.200 173.643 128.754 M134.523 149.500 L 125.646 149.615 124.784 150.708 C 123.991 151.714,123.933 152.180,124.055 156.600 C 124.365 167.857,124.077 173.531,123.170 174.016 C 122.633 174.303,118.642 174.485,111.852 174.530 C 102.559 174.592,101.241 174.681,100.282 175.309 L 99.200 176.018 99.200 187.395 C 99.200 198.234,99.163 198.791,98.426 199.186 C 97.949 199.441,93.595 199.600,87.055 199.600 C 77.954 199.600,76.368 199.689,75.829 200.229 C 74.931 201.126,74.877 223.634,75.770 224.375 C 76.642 225.098,97.238 224.800,98.139 224.051 C 98.726 223.564,98.800 222.189,98.800 211.775 C 98.800 202.832,98.919 199.970,99.300 199.724 C 99.575 199.546,104.390 199.457,110.000 199.526 C 117.869 199.623,120.553 199.526,121.746 199.104 L 123.292 198.557 123.240 186.979 C 123.209 180.028,123.345 175.160,123.579 174.800 C 123.906 174.298,125.843 174.167,135.485 174.000 C 141.818 173.890,147.203 173.668,147.451 173.507 C 148.464 172.848,148.800 169.405,148.800 159.673 L 148.800 149.700 147.550 149.450 C 146.863 149.313,145.648 149.241,144.850 149.292 C 144.053 149.343,139.405 149.436,134.523 149.500 M146.089 150.700 C 147.164 151.928,147.356 168.743,146.327 171.500 L 145.543 173.600 135.804 173.600 L 126.066 173.600 125.633 171.580 C 124.840 167.880,125.066 151.845,125.923 151.070 C 126.540 150.512,127.997 150.398,135.823 150.300 C 140.870 150.236,145.107 150.143,145.238 150.092 C 145.369 150.041,145.752 150.315,146.089 150.700 M278.200 150.289 C 276.274 150.763,276.274 150.765,276.527 160.995 C 276.777 171.122,277.112 173.391,278.416 173.805 C 279.502 174.150,299.537 174.197,299.878 173.856 C 300.756 172.977,300.468 151.924,299.564 150.962 L 298.661 150.000 288.830 150.046 C 283.424 150.072,278.640 150.181,278.200 150.289 M299.000 162.200 L 299.000 173.400 289.149 173.507 L 279.298 173.614 278.824 171.731 C 278.065 168.717,277.748 151.606,278.443 151.161 C 278.749 150.965,283.500 150.849,289.000 150.902 L 299.000 151.000 299.000 162.200 M121.163 175.931 C 121.386 176.347,121.585 181.396,121.626 187.631 L 121.697 198.600 110.949 198.600 L 100.200 198.600 100.344 187.600 C 100.429 181.126,100.652 176.398,100.887 176.108 C 101.174 175.753,103.651 175.583,109.742 175.499 C 114.394 175.436,118.779 175.342,119.486 175.292 C 120.387 175.227,120.889 175.419,121.163 175.931 M323.767 176.243 C 324.323 176.456,324.400 177.831,324.400 187.566 C 324.400 195.924,324.526 198.819,324.911 199.346 C 325.775 200.527,328.216 200.781,338.820 200.790 C 345.241 200.796,349.192 200.952,349.449 201.209 C 349.993 201.753,349.664 223.204,349.101 223.903 C 348.783 224.299,343.905 224.385,326.248 224.303 L 303.800 224.200 303.697 200.426 C 303.615 181.671,303.700 176.584,304.097 176.332 C 304.680 175.962,322.821 175.880,323.767 176.243 M96.500 200.889 C 97.142 201.200,97.200 202.156,97.200 212.396 L 97.200 223.564 95.900 223.798 C 95.185 223.928,90.460 223.981,85.400 223.917 L 76.200 223.800 76.094 212.605 C 76.035 206.448,76.077 201.175,76.188 200.887 C 76.420 200.282,95.249 200.284,96.500 200.889 M49.700 226.012 L 48.800 226.374 48.800 249.978 L 48.800 273.582 49.757 274.209 C 50.581 274.748,52.306 274.819,62.172 274.718 C 74.904 274.587,74.490 274.687,73.987 271.869 C 73.823 270.951,73.667 261.380,73.639 250.600 C 73.578 226.466,73.585 226.545,71.649 226.007 C 69.856 225.509,50.941 225.514,49.700 226.012 M71.344 229.100 C 71.480 230.585,71.621 240.440,71.658 251.000 C 71.707 264.808,71.863 270.670,72.216 271.875 C 72.631 273.292,72.616 273.585,72.121 273.775 C 71.389 274.056,51.061 274.075,50.333 273.796 C 49.790 273.588,49.697 232.233,50.230 228.100 L 50.449 226.400 60.773 226.400 L 71.097 226.400 71.344 229.100 M299.633 229.700 C 299.651 231.515,299.734 236.444,299.816 240.653 C 299.952 247.554,299.898 248.368,299.266 248.941 C 298.358 249.762,279.537 249.977,278.573 249.178 C 277.868 248.592,277.737 230.361,278.421 227.900 L 278.838 226.400 289.219 226.400 L 299.600 226.400 299.633 229.700 M273.496 253.462 L 274.528 254.233 274.705 263.740 C 274.934 276.054,276.146 274.800,264.014 274.800 C 252.610 274.800,252.998 274.941,253.119 270.845 C 253.324 263.913,253.235 259.277,252.850 256.866 C 252.544 254.955,252.603 254.620,253.416 253.655 L 254.322 252.577 263.393 252.634 C 271.672 252.687,272.555 252.759,273.496 253.462 M75.495 275.839 C 74.842 276.491,75.156 299.360,75.831 300.323 C 76.459 301.219,76.503 301.223,85.931 301.112 C 96.577 300.986,98.223 301.248,98.634 303.131 C 98.762 303.719,98.957 304.470,99.068 304.800 C 99.179 305.130,99.252 309.484,99.232 314.476 C 99.196 323.428,99.207 323.560,100.087 324.176 C 101.277 325.010,123.815 325.126,124.066 324.300 C 124.486 322.915,124.099 301.939,123.645 301.484 C 123.296 301.135,120.063 300.966,112.022 300.877 C 98.103 300.724,99.618 302.051,99.581 289.974 C 99.551 280.279,99.148 276.663,98.041 276.134 C 97.203 275.734,75.879 275.455,75.495 275.839 M78.351 277.027 C 79.625 277.537,81.029 277.614,85.859 277.441 C 94.698 277.123,94.426 277.099,96.199 278.371 C 98.086 279.725,98.774 281.973,98.046 284.405 C 97.759 285.363,97.741 286.297,97.993 287.176 C 98.813 290.035,98.401 299.588,97.449 299.793 C 94.859 300.348,76.401 300.181,76.161 299.600 C 75.859 298.870,75.955 278.566,76.266 277.300 C 76.529 276.229,76.399 276.246,78.351 277.027 M227.539 276.683 C 225.736 276.960,225.576 278.060,225.693 289.400 L 225.800 299.800 237.415 299.906 C 246.780 299.991,249.177 299.905,249.785 299.461 C 250.561 298.893,251.090 283.470,250.510 278.300 L 250.297 276.400 239.448 276.460 C 233.482 276.493,228.123 276.593,227.539 276.683 M249.350 278.861 C 249.660 279.284,249.738 281.458,249.600 285.838 C 249.490 289.337,249.537 293.530,249.703 295.155 C 250.150 299.504,250.988 299.230,237.657 299.106 L 226.222 299.000 226.348 289.000 C 226.418 283.500,226.545 278.928,226.631 278.840 C 227.539 277.909,248.666 277.929,249.350 278.861 M200.966 302.620 C 200.528 303.667,200.400 306.282,200.400 314.133 C 200.400 323.786,200.359 324.344,199.576 325.340 L 198.752 326.388 187.481 326.494 L 176.210 326.600 175.605 327.800 C 175.130 328.742,174.957 331.195,174.800 339.200 C 174.667 345.972,174.442 349.669,174.128 350.200 C 173.411 351.418,151.904 351.699,150.435 350.509 L 149.503 349.754 149.561 339.977 C 149.613 331.357,149.329 326.796,148.702 326.169 C 148.595 326.062,143.309 325.935,136.954 325.887 L 125.400 325.800 125.294 337.762 C 125.164 352.475,124.611 351.273,131.352 350.934 C 138.855 350.557,148.669 351.115,149.047 351.941 C 149.213 352.303,149.381 356.470,149.420 361.200 C 149.530 374.314,149.524 374.221,150.300 375.143 C 150.990 375.963,151.346 375.979,174.858 376.237 L 198.717 376.499 199.458 375.367 C 200.121 374.356,200.210 373.212,200.294 364.618 C 200.346 359.328,200.528 354.100,200.699 353.000 L 201.010 351.000 212.172 350.894 C 219.705 350.822,223.510 350.641,223.876 350.337 C 224.482 349.834,224.496 302.362,223.890 301.756 C 223.719 301.586,218.619 301.406,212.556 301.356 L 201.531 301.266 200.966 302.620 M116.526 302.983 C 121.760 303.171,123.548 305.108,122.480 309.433 C 121.922 311.695,121.916 319.828,122.472 321.683 C 123.156 323.967,123.060 323.988,111.600 323.988 C 98.933 323.989,99.686 324.166,100.048 321.275 C 100.204 320.024,100.348 315.659,100.366 311.576 C 100.413 301.351,98.559 302.337,116.526 302.983 M223.600 303.484 C 223.866 303.727,224.025 347.506,223.764 348.844 L 223.561 349.889 212.480 349.696 L 201.400 349.504 200.432 350.550 L 199.465 351.595 199.395 362.698 C 199.357 368.804,199.188 374.115,199.020 374.500 C 198.562 375.549,152.290 375.586,151.131 374.538 C 150.332 373.814,149.992 354.863,150.758 353.655 C 151.034 353.219,153.329 353.099,162.290 353.055 C 177.078 352.982,176.000 354.052,176.000 339.446 C 176.000 334.066,176.109 329.381,176.243 329.033 C 176.456 328.477,177.836 328.400,187.622 328.400 L 198.759 328.400 199.880 326.930 L 201.000 325.460 201.046 315.230 C 201.072 309.603,201.117 304.600,201.146 304.111 C 201.199 303.244,201.336 303.220,206.700 303.111 C 212.980 302.984,223.302 303.212,223.600 303.484 M129.209 327.602 C 130.238 327.880,133.654 328.002,138.204 327.925 C 146.534 327.783,147.872 328.166,147.738 330.651 C 147.704 331.283,147.678 333.150,147.681 334.800 C 147.684 336.450,147.647 338.520,147.600 339.400 C 147.515 340.981,147.524 341.740,147.677 345.953 C 147.802 349.378,147.684 349.422,137.524 349.728 C 132.823 349.869,128.415 350.097,127.728 350.234 C 125.928 350.594,125.850 350.079,125.948 338.400 C 126.037 327.688,126.137 326.614,127.011 326.949 C 127.307 327.063,128.297 327.357,129.209 327.602 " stroke="none" fill="#5d553f" fill-rule="evenodd"></path><path id="path6" d="M74.297 74.302 L 72.018 76.605 72.104 86.202 C 72.168 93.297,72.053 96.191,71.664 97.300 L 71.138 98.800 61.029 98.800 C 50.527 98.800,48.790 99.017,47.500 100.489 C 46.762 101.332,46.374 222.744,47.106 223.840 C 47.875 224.992,49.307 225.116,61.132 225.059 C 72.644 225.003,73.294 224.960,73.832 224.224 C 74.290 223.597,74.400 221.296,74.400 212.311 C 74.400 203.778,74.528 200.867,74.949 199.861 C 75.407 198.765,75.470 190.497,75.332 149.897 C 75.167 101.341,75.168 101.245,75.978 100.812 C 77.070 100.227,144.730 100.259,146.943 100.845 L 148.485 101.254 148.198 103.527 C 147.618 108.109,147.920 123.723,148.596 124.102 C 149.372 124.536,173.821 124.313,174.267 123.867 C 174.825 123.310,174.926 100.033,174.373 99.368 C 173.987 98.902,171.870 98.800,162.559 98.800 L 151.215 98.800 151.008 97.900 C 150.894 97.405,150.755 92.009,150.700 85.909 L 150.600 74.817 149.558 73.776 L 148.516 72.734 138.558 72.383 C 133.081 72.190,116.894 72.024,102.587 72.016 L 76.575 72.000 74.297 74.302 M326.000 72.226 C 325.670 72.299,320.033 72.422,313.473 72.500 C 303.614 72.616,301.479 72.741,301.161 73.220 C 300.385 74.392,300.894 97.867,301.714 98.686 C 302.352 99.324,303.676 99.432,314.114 99.700 C 320.541 99.865,327.510 100.142,329.600 100.314 C 331.690 100.487,337.439 100.552,342.375 100.458 C 354.375 100.229,353.200 101.646,353.200 87.400 C 353.200 74.954,353.569 76.500,349.838 73.300 L 348.323 72.000 337.461 72.046 C 331.488 72.072,326.330 72.153,326.000 72.226 M250.400 73.854 C 250.400 75.165,252.109 75.398,263.200 75.600 L 274.200 75.800 274.415 87.400 C 274.534 93.780,274.669 99.045,274.715 99.100 C 275.367 99.870,276.072 99.005,275.857 97.700 C 275.720 96.875,275.607 91.675,275.604 86.144 C 275.599 73.058,276.846 74.407,264.705 74.362 C 258.856 74.340,254.287 74.137,252.805 73.831 C 250.848 73.428,250.400 73.432,250.400 73.854 M225.500 74.533 C 224.951 75.874,225.137 98.712,225.700 99.076 C 225.975 99.254,231.510 99.496,238.000 99.613 C 244.490 99.730,250.115 99.974,250.500 100.156 C 251.552 100.652,251.369 99.720,250.300 99.138 C 249.674 98.796,246.361 98.616,239.400 98.543 C 228.907 98.433,227.029 98.279,226.514 97.485 C 226.341 97.218,226.110 91.780,226.000 85.400 C 225.890 79.020,225.665 74.130,225.500 74.533 M148.373 75.813 C 148.835 76.275,149.032 95.537,148.592 97.289 C 148.447 97.868,148.029 98.463,147.664 98.611 C 147.039 98.864,75.564 98.898,75.312 98.645 C 74.729 98.062,74.884 76.570,75.476 75.916 C 76.257 75.053,147.513 74.952,148.373 75.813 M349.333 75.702 C 350.054 76.229,350.507 95.782,349.846 97.857 C 349.463 99.060,350.450 99.020,326.203 98.800 L 304.206 98.600 303.403 97.000 C 302.675 95.549,302.599 94.601,302.590 86.800 C 302.584 82.070,302.440 77.805,302.270 77.323 C 302.019 76.612,302.173 76.331,303.080 75.839 C 304.602 75.014,348.216 74.885,349.333 75.702 M72.557 100.753 C 73.296 101.043,73.687 195.733,72.966 199.800 C 72.849 200.460,72.719 206.002,72.677 212.115 C 72.612 221.502,72.507 223.288,72.000 223.609 C 71.347 224.021,51.277 224.158,50.233 223.757 C 49.660 223.537,49.600 217.761,49.600 162.418 L 49.600 101.322 50.500 100.888 C 51.528 100.392,71.328 100.271,72.557 100.753 M172.974 100.790 L 174.000 101.180 174.000 110.564 C 174.000 121.293,173.921 121.675,171.526 122.529 C 167.328 124.027,151.564 123.717,150.838 122.123 C 150.200 120.724,150.239 101.521,150.880 100.880 C 151.480 100.280,171.418 100.199,172.974 100.790 M225.600 124.800 C 225.600 125.020,225.645 125.238,225.700 125.285 C 225.755 125.331,231.020 125.466,237.400 125.585 L 249.000 125.800 249.200 137.481 C 249.382 148.129,249.706 151.253,250.493 149.973 C 251.114 148.964,250.109 125.468,249.424 124.967 C 248.471 124.271,225.600 124.111,225.600 124.800 M162.156 149.500 C 152.081 149.601,150.848 149.684,150.288 150.306 C 149.632 151.034,149.039 174.801,149.676 174.800 C 150.444 174.800,150.616 172.901,150.800 162.400 L 151.000 151.000 162.467 150.800 C 168.774 150.690,174.057 150.477,174.207 150.327 C 174.524 150.009,174.085 149.155,173.676 149.294 C 173.524 149.345,168.340 149.438,162.156 149.500 M275.364 174.858 C 274.943 175.540,277.472 175.763,288.000 175.973 L 299.400 176.200 299.472 188.138 C 299.511 194.705,299.632 200.165,299.739 200.273 C 300.567 201.100,300.804 197.924,300.706 187.320 L 300.600 175.810 299.600 175.335 C 298.527 174.826,275.661 174.375,275.364 174.858 M249.758 250.300 C 249.578 250.685,249.333 256.220,249.215 262.600 L 249.000 274.200 237.299 274.400 C 221.535 274.669,221.406 275.364,237.094 275.506 C 252.058 275.642,250.399 277.163,250.404 263.300 C 250.407 257.415,250.520 251.925,250.657 251.100 C 250.917 249.527,250.354 249.026,249.758 250.300 M47.554 275.917 C 46.830 276.424,46.800 277.374,46.800 299.849 C 46.800 325.480,46.652 324.044,49.512 326.098 L 51.443 327.486 58.821 327.143 C 62.880 326.955,67.201 326.696,68.425 326.568 L 70.649 326.335 71.336 327.867 C 71.877 329.073,72.022 330.550,72.018 334.800 C 72.016 337.770,72.012 342.063,72.009 344.340 C 72.005 349.015,71.944 348.847,74.444 351.121 L 76.289 352.799 99.837 352.817 C 122.024 352.833,123.417 352.792,123.916 352.117 C 124.511 351.310,124.457 328.388,123.856 327.128 C 123.244 325.845,121.257 325.600,111.438 325.600 C 105.222 325.600,101.298 325.436,100.397 325.138 C 99.530 324.851,94.679 324.612,87.600 324.506 C 81.330 324.413,76.030 324.172,75.823 323.971 C 75.608 323.763,75.413 318.903,75.371 312.703 C 75.325 305.959,75.126 301.267,74.848 300.403 C 74.568 299.529,74.398 295.332,74.396 289.203 C 74.390 277.608,74.262 276.480,72.894 275.960 C 71.226 275.326,48.453 275.288,47.554 275.917 M71.733 277.970 C 72.834 279.634,73.109 284.518,72.693 295.000 C 72.606 297.198,72.753 299.301,73.071 300.400 C 73.925 303.353,73.814 323.324,72.939 324.051 C 71.849 324.957,51.917 325.100,50.562 324.212 L 49.557 323.553 49.701 301.477 C 49.805 285.401,49.978 278.996,50.337 277.914 L 50.830 276.428 60.763 276.415 L 70.695 276.402 71.733 277.970 M226.000 301.191 C 225.026 301.807,224.881 350.984,225.850 352.055 C 226.476 352.747,227.307 352.800,237.587 352.800 L 248.650 352.800 249.676 351.700 C 250.241 351.095,250.904 350.207,251.151 349.726 C 251.814 348.436,251.784 301.944,251.120 301.280 C 250.524 300.684,226.934 300.601,226.000 301.191 M247.661 302.344 C 249.541 302.443,249.601 303.205,249.587 326.760 C 249.577 344.712,249.476 348.730,249.022 349.329 C 248.258 350.337,227.036 350.215,226.386 349.200 C 225.920 348.473,226.047 303.819,226.516 303.350 C 227.456 302.411,238.707 301.876,247.661 302.344 M149.434 316.100 C 149.258 316.705,149.258 317.695,149.434 318.300 L 149.755 319.400 149.904 318.300 C 149.986 317.695,149.986 316.705,149.904 316.100 L 149.755 315.000 149.434 316.100 M149.200 323.930 C 149.200 325.041,151.044 325.898,152.800 325.603 L 154.600 325.300 152.962 325.250 C 151.879 325.217,151.079 324.929,150.600 324.400 C 149.851 323.572,149.200 323.354,149.200 323.930 M173.400 324.822 C 172.960 324.999,171.355 325.156,169.833 325.172 C 166.341 325.207,166.547 325.426,170.400 325.773 C 172.683 325.979,173.582 325.910,174.161 325.483 C 175.063 324.817,174.541 324.363,173.400 324.822 M163.100 325.489 C 163.815 325.578,164.985 325.578,165.700 325.489 C 166.415 325.401,165.830 325.328,164.400 325.328 C 162.970 325.328,162.385 325.401,163.100 325.489 M107.600 326.815 C 107.930 326.861,110.945 326.812,114.299 326.707 L 120.399 326.516 121.797 328.222 L 123.195 329.929 123.119 339.218 L 123.043 348.507 121.822 349.252 C 119.845 350.458,76.804 350.404,75.595 349.195 C 74.788 348.388,74.657 329.080,75.445 327.026 C 75.669 326.442,103.581 326.259,107.600 326.815 " stroke="none" fill="#c4682c" fill-rule="evenodd"></path><path id="path7" d="M225.800 48.786 C 224.891 49.805,224.328 71.942,225.158 74.020 C 225.644 75.237,225.796 70.507,225.635 59.200 C 225.487 48.759,224.155 49.830,237.484 49.677 C 251.117 49.520,249.661 48.182,249.653 60.864 C 249.646 70.498,249.940 73.125,251.063 73.491 C 251.399 73.600,251.429 73.226,251.172 72.121 C 250.978 71.284,250.814 66.460,250.807 61.400 C 250.796 52.341,250.512 49.723,249.446 48.838 C 249.093 48.545,245.047 48.303,237.753 48.139 L 226.600 47.888 225.800 48.786 M276.000 98.967 C 276.000 100.001,277.426 100.162,288.515 100.381 C 296.273 100.534,299.717 100.739,299.915 101.062 C 300.072 101.316,300.172 106.479,300.137 112.536 C 300.089 121.127,300.191 123.709,300.605 124.275 C 301.092 124.942,302.048 125.008,312.463 125.093 C 321.968 125.171,323.907 125.285,324.508 125.800 C 325.173 126.369,325.211 127.214,325.036 137.706 C 324.672 159.589,324.204 173.158,323.800 173.492 C 323.580 173.674,318.990 173.728,313.600 173.611 L 303.800 173.400 303.298 171.000 C 302.965 169.406,302.831 165.759,302.898 160.142 L 303.000 151.684 301.400 150.262 C 300.520 149.480,299.440 148.494,299.000 148.071 C 298.372 147.468,297.985 147.383,297.200 147.676 C 296.650 147.881,292.407 148.094,287.771 148.150 L 279.341 148.251 278.284 146.780 C 277.260 145.356,277.227 145.130,277.215 139.555 C 277.199 131.817,277.203 132.146,277.076 129.200 C 276.944 126.138,276.361 124.786,274.766 123.843 C 274.125 123.465,273.600 123.005,273.600 122.822 C 273.600 122.638,270.135 122.572,265.900 122.675 C 261.665 122.777,257.429 122.855,256.486 122.848 C 254.731 122.835,251.617 121.425,251.580 120.626 C 251.562 120.245,251.627 115.985,251.808 105.600 C 251.878 101.562,251.761 100.914,250.873 100.439 C 250.056 100.001,250.050 122.896,250.867 123.880 C 251.202 124.284,253.814 124.400,262.579 124.400 L 273.861 124.400 274.737 125.333 C 275.601 126.253,275.611 126.415,275.506 137.633 L 275.400 149.000 263.100 149.000 C 253.972 149.000,250.800 149.121,250.800 149.468 C 250.800 150.272,252.689 150.398,263.238 150.298 C 276.181 150.174,274.790 148.945,274.840 160.549 C 274.891 172.506,275.075 174.154,276.381 174.338 C 277.274 174.464,277.310 174.414,276.781 173.777 C 276.302 173.201,276.200 171.027,276.200 161.439 L 276.200 149.800 287.389 149.600 L 298.578 149.400 299.666 150.316 L 300.754 151.232 300.877 162.449 C 300.993 173.013,301.045 173.698,301.776 174.233 C 302.845 175.013,324.878 175.076,325.508 174.300 C 325.977 173.721,326.661 127.451,326.220 126.064 C 325.628 124.198,324.399 124.000,313.320 123.995 C 307.644 123.992,302.609 123.884,302.132 123.756 L 301.264 123.523 301.430 112.862 C 301.609 101.440,301.521 100.238,300.476 99.754 C 300.104 99.581,294.925 99.393,288.968 99.336 C 282.890 99.277,277.666 99.053,277.068 98.826 C 276.233 98.508,276.000 98.539,276.000 98.967 M200.960 99.506 C 199.730 100.327,199.591 101.663,199.695 111.683 C 199.776 119.505,199.677 122.092,199.256 123.089 L 198.712 124.378 187.143 124.289 C 177.228 124.213,175.519 124.286,175.193 124.800 C 174.979 125.137,174.802 129.954,174.789 135.800 C 174.771 143.435,174.622 146.600,174.228 147.705 C 173.680 149.240,174.054 150.106,174.900 149.260 C 175.728 148.432,175.991 144.128,175.737 135.571 C 175.402 124.281,173.946 125.518,187.494 125.581 L 198.716 125.633 199.558 124.563 C 200.368 123.533,200.400 123.071,200.400 112.395 C 200.400 103.705,200.514 101.203,200.927 100.861 C 201.581 100.318,223.538 100.178,224.073 100.713 C 224.271 100.911,224.471 106.025,224.517 112.076 C 224.582 120.718,224.718 123.219,225.149 123.739 C 225.884 124.624,226.578 124.597,226.157 123.700 C 225.976 123.315,225.731 117.818,225.614 111.485 C 225.435 101.846,225.302 99.908,224.800 99.591 C 224.097 99.147,201.618 99.067,200.960 99.506 M148.000 174.089 C 147.424 174.314,142.638 174.455,136.720 174.419 C 122.337 174.334,123.441 173.045,123.799 189.510 L 124.002 198.819 122.901 199.310 C 122.136 199.650,118.691 199.815,111.600 199.850 C 99.607 199.909,100.615 199.842,99.829 200.629 C 99.287 201.170,99.200 202.820,99.200 212.580 C 99.200 222.616,99.125 223.964,98.540 224.451 C 98.028 224.877,95.335 225.045,86.559 225.200 C 79.752 225.320,75.078 225.561,74.835 225.804 C 73.886 226.755,74.588 273.285,75.565 274.167 C 76.076 274.629,78.322 274.767,87.039 274.871 C 101.246 275.040,100.071 273.837,100.047 288.194 C 100.025 301.426,98.608 300.000,111.783 300.000 C 126.331 300.000,124.990 298.669,124.883 313.000 C 124.783 326.430,123.196 324.910,137.379 324.965 C 151.833 325.022,150.177 323.390,150.287 337.686 C 150.361 347.312,150.465 349.036,151.002 349.572 C 151.839 350.407,172.871 350.489,173.699 349.661 C 174.080 349.280,174.167 346.888,174.064 339.680 C 173.847 324.520,172.793 325.600,187.796 325.600 C 201.493 325.600,200.000 327.056,200.000 313.698 C 200.000 305.763,200.125 303.274,200.580 302.187 L 201.159 300.800 212.531 300.800 C 222.621 300.800,223.964 300.725,224.451 300.138 C 224.882 299.619,225.016 297.167,225.074 288.732 C 225.132 280.240,225.270 277.743,225.730 276.820 C 226.205 275.868,226.215 275.615,225.786 275.450 C 224.404 274.920,224.204 276.299,224.000 287.761 L 223.800 299.000 212.508 299.200 L 201.217 299.400 200.108 300.509 L 199.000 301.618 198.935 312.591 C 198.899 318.626,198.753 323.752,198.611 323.982 C 198.441 324.257,194.505 324.400,187.124 324.400 C 176.175 324.400,175.858 324.423,174.447 325.300 C 173.058 326.163,172.571 326.205,162.320 326.342 L 151.641 326.485 150.120 325.018 L 148.600 323.551 148.744 315.948 C 148.982 303.322,148.600 301.912,144.600 300.684 C 141.895 299.854,130.599 299.998,128.100 300.896 C 126.606 301.432,126.400 301.435,126.400 300.914 C 126.400 300.588,125.846 299.804,125.170 299.172 C 124.493 298.539,124.052 297.840,124.189 297.618 C 124.634 296.898,124.740 281.078,124.316 278.724 C 123.787 275.794,120.987 274.064,117.662 274.611 C 116.638 274.780,113.550 274.946,110.800 274.981 C 108.050 275.017,104.900 275.272,103.800 275.548 C 102.005 276.000,101.759 275.980,101.400 275.361 C 101.180 274.981,100.730 274.384,100.400 274.035 C 99.894 273.500,99.831 272.177,100.000 265.600 C 100.224 256.852,99.894 252.188,98.978 251.175 C 98.115 250.222,92.982 249.749,83.932 249.790 L 76.465 249.824 76.232 248.662 C 75.922 247.111,75.934 230.993,76.247 228.709 L 76.494 226.906 77.947 227.243 C 79.974 227.714,82.711 227.676,84.600 227.150 C 85.802 226.815,87.000 226.829,89.419 227.204 C 92.255 227.644,92.789 227.626,93.900 227.052 C 94.593 226.693,95.959 226.400,96.934 226.400 C 99.968 226.400,100.000 226.264,100.000 213.146 C 100.000 198.917,98.882 200.377,109.541 200.681 C 126.071 201.153,124.986 202.071,124.846 187.729 C 124.748 177.818,124.810 176.490,125.385 176.012 C 125.896 175.589,128.062 175.490,135.517 175.553 C 143.985 175.625,148.395 175.338,149.060 174.673 C 149.626 174.108,148.931 173.724,148.000 174.089 M330.753 176.320 L 328.907 176.439 328.613 187.271 C 328.371 196.174,328.415 198.164,328.859 198.445 C 329.157 198.634,333.858 198.791,339.306 198.794 L 349.212 198.800 349.106 187.526 L 349.000 176.252 340.800 176.226 C 336.290 176.212,331.769 176.254,330.753 176.320 M300.100 200.058 C 299.723 200.436,299.600 203.398,299.600 212.080 C 299.600 218.416,299.555 223.636,299.500 223.679 C 299.445 223.723,294.119 223.858,287.664 223.979 C 272.750 224.260,274.400 222.620,274.400 237.164 C 274.400 245.245,274.270 248.370,273.920 248.720 C 273.571 249.069,270.532 249.200,262.753 249.200 C 251.325 249.200,250.800 249.256,250.800 250.486 C 250.800 251.111,250.952 251.211,251.500 250.943 C 251.885 250.754,257.140 250.558,263.179 250.507 C 272.479 250.428,274.252 250.319,274.779 249.794 C 275.301 249.273,275.432 247.386,275.600 238.000 C 275.854 223.831,274.231 225.454,288.400 225.200 C 302.522 224.947,300.967 226.355,301.118 213.686 C 301.245 203.048,300.957 199.198,300.100 200.058 " stroke="none" fill="#847c74" fill-rule="evenodd"></path><path id="path8" d="M132.000 54.276 C 128.370 54.348,125.135 54.505,124.811 54.625 C 123.623 55.065,125.334 55.587,128.000 55.598 C 129.430 55.604,131.484 55.877,132.564 56.204 C 133.644 56.532,135.575 56.800,136.855 56.800 C 138.136 56.800,139.909 57.090,140.796 57.445 C 142.237 58.022,147.829 57.213,148.600 56.317 C 149.918 54.784,149.263 54.400,145.327 54.396 C 143.167 54.393,140.770 54.336,140.000 54.268 C 139.230 54.201,135.630 54.204,132.000 54.276 M300.816 57.590 C 298.689 58.905,321.184 59.534,324.600 58.255 L 326.200 57.656 323.000 57.581 C 312.956 57.343,301.208 57.348,300.816 57.590 M76.057 66.736 C 74.935 67.489,76.941 67.550,105.524 67.636 C 133.087 67.719,135.785 67.652,135.033 66.900 C 134.594 66.460,76.709 66.299,76.057 66.736 M325.280 66.795 C 324.554 66.967,323.849 67.218,323.713 67.354 C 323.578 67.489,329.257 67.600,336.333 67.600 C 348.011 67.600,350.545 67.402,348.567 66.643 C 347.647 66.290,326.840 66.425,325.280 66.795 M137.600 67.200 C 137.930 67.413,138.560 67.588,139.000 67.588 C 139.440 67.588,140.070 67.413,140.400 67.200 C 140.831 66.921,140.437 66.812,139.000 66.812 C 137.563 66.812,137.169 66.921,137.600 67.200 M310.671 67.840 C 311.555 70.145,315.080 71.320,315.992 69.614 C 316.224 69.182,317.175 68.623,318.107 68.373 C 321.672 67.415,321.363 67.254,315.913 67.227 C 311.040 67.203,310.453 67.272,310.671 67.840 M66.437 75.755 C 66.089 76.175,66.093 76.566,66.452 77.355 C 67.046 78.658,67.443 78.681,67.756 77.432 C 68.198 75.670,67.376 74.624,66.437 75.755 M365.774 75.763 C 365.001 76.305,364.971 76.750,364.990 87.450 L 365.009 98.574 366.090 99.181 C 367.974 100.239,368.043 99.830,368.058 87.478 C 368.074 74.460,368.021 74.189,365.774 75.763 M54.287 76.100 C 53.695 77.752,56.437 78.706,57.816 77.327 C 58.446 76.696,58.443 76.621,57.768 76.127 C 56.854 75.458,54.524 75.440,54.287 76.100 M55.909 87.090 C 53.048 88.264,53.352 92.927,56.294 93.001 C 58.366 93.053,58.914 91.472,58.150 87.650 C 57.868 86.242,57.934 86.258,55.909 87.090 M66.200 87.856 C 65.543 88.859,65.544 89.032,66.221 91.269 C 67.013 93.885,67.282 93.865,67.940 91.144 C 68.711 87.960,67.558 85.783,66.200 87.856 M158.426 88.447 C 155.731 88.903,155.670 88.965,157.048 89.868 C 158.524 90.835,162.563 90.766,165.800 89.720 L 168.200 88.944 165.200 88.646 C 163.550 88.482,161.840 88.287,161.400 88.213 C 160.960 88.139,159.622 88.244,158.426 88.447 M44.693 101.700 C 44.296 103.545,44.993 223.802,45.400 223.700 C 46.281 223.480,46.117 100.800,45.236 100.800 C 45.044 100.800,44.800 101.205,44.693 101.700 M147.856 103.284 C 147.721 103.788,147.631 104.830,147.655 105.600 C 147.689 106.669,147.775 106.480,148.018 104.802 C 148.353 102.492,148.272 101.733,147.856 103.284 M334.400 104.786 C 334.400 105.289,335.820 106.047,336.147 105.719 C 336.742 105.125,336.332 104.400,335.400 104.400 C 334.850 104.400,334.400 104.574,334.400 104.786 M138.467 122.643 C 137.933 123.238,138.422 124.400,139.206 124.400 C 139.778 124.400,139.949 123.283,139.473 122.663 C 139.055 122.120,138.938 122.118,138.467 122.643 M45.001 276.055 C 44.594 277.120,44.985 323.804,45.400 323.700 C 45.650 323.637,45.859 319.367,45.957 312.300 C 46.044 306.085,46.192 295.498,46.288 288.774 C 46.440 278.034,46.385 276.485,45.835 276.029 C 45.320 275.602,45.173 275.606,45.001 276.055 M35.456 276.278 C 35.130 276.603,35.117 298.119,35.442 298.965 C 36.160 300.836,36.400 298.039,36.400 287.800 C 36.400 277.500,36.236 275.497,35.456 276.278 M66.300 326.676 C 65.415 326.907,65.423 327.023,66.393 327.993 C 67.184 328.784,67.188 328.783,67.804 327.593 C 68.465 326.314,68.231 326.171,66.300 326.676 M54.200 327.600 C 54.336 327.820,55.236 328.000,56.200 328.000 C 57.164 328.000,58.064 327.820,58.200 327.600 C 58.354 327.351,57.596 327.200,56.200 327.200 C 54.804 327.200,54.046 327.351,54.200 327.600 M66.540 331.900 C 65.645 334.060,65.596 335.974,66.402 337.300 L 67.163 338.550 67.622 337.375 C 68.450 335.256,68.524 333.400,67.834 332.065 C 67.043 330.537,67.101 330.544,66.540 331.900 M56.300 334.685 C 55.056 335.183,54.800 335.481,54.800 336.430 C 54.800 337.334,54.940 337.521,55.466 337.319 C 55.914 337.148,56.037 337.217,55.842 337.533 C 55.609 337.909,56.980 338.800,57.791 338.800 C 58.141 338.800,58.406 335.687,58.120 334.931 C 57.814 334.121,57.735 334.110,56.300 334.685 M57.263 347.640 C 56.814 348.366,56.814 348.562,57.263 348.843 C 57.837 349.202,58.162 348.492,57.929 347.387 C 57.829 346.909,57.681 346.966,57.263 347.640 M66.806 347.900 C 66.803 348.615,66.980 349.200,67.200 349.200 C 67.708 349.200,67.708 347.986,67.200 347.200 C 66.906 346.745,66.811 346.914,66.806 347.900 M115.282 357.896 C 116.758 357.973,119.278 357.973,120.882 357.897 C 122.487 357.821,121.280 357.758,118.200 357.758 C 115.120 357.757,113.807 357.819,115.282 357.896 M97.553 367.099 C 91.528 367.208,90.840 367.293,90.191 368.009 C 89.180 369.127,85.867 369.121,84.907 368.000 C 84.309 367.301,83.727 367.200,80.311 367.200 L 76.400 367.200 76.400 368.800 L 76.400 370.400 97.600 370.400 L 118.800 370.400 118.800 368.858 L 118.800 367.316 116.100 367.061 C 114.615 366.920,111.330 366.845,108.800 366.892 C 106.270 366.940,101.209 367.033,97.553 367.099 M243.929 367.700 C 244.395 368.275,244.295 368.383,243.091 368.609 C 241.020 368.998,231.086 368.663,230.933 368.200 C 230.859 367.975,229.839 367.860,228.601 367.937 L 226.400 368.074 226.400 369.443 L 226.400 370.813 237.500 370.706 L 248.600 370.600 248.600 369.400 C 248.600 368.254,248.510 368.191,246.600 367.993 C 245.500 367.879,244.330 367.619,244.000 367.416 C 243.489 367.101,243.478 367.143,243.929 367.700 " stroke="none" fill="#963044" fill-rule="evenodd"></path></g></svg>